<svg xmlns="http://www.w3.org/2000/svg" viewBox="0 0 200 200" role="img" aria-label="gradland.au">
  <title>gradland.au</title>
  <defs>
    <clipPath id="frameClip"><rect x="4" y="4" width="180" height="180" rx="22"/></clipPath>
  </defs>
  <rect x="12" y="12" width="180" height="180" rx="22" fill="#1a1410"/>
  <rect x="4" y="4" width="180" height="180" rx="22" fill="#f5efe1" stroke="#1a1410" stroke-width="2"/>
  <g clip-path="url(#frameClip)">
    <circle cx="130" cy="38" r="8" fill="#d4a04c"/>
    <path d="M 4 55 C 60 50, 100 60, 184 53" stroke="#2d5f3f" stroke-width="1.5" fill="none" stroke-dasharray="3 2.5" stroke-linecap="round"/>
    <path d="M 4 65 C 50 60, 100 72, 184 65 L 184 184 L 4 184 Z" fill="#e0a982"/>
    <path d="M 4 90 C 45 80, 100 95, 184 88 L 184 184 L 4 184 Z" fill="#d4a04c"/>
    <path d="M 4 115 C 45 108, 100 113, 184 118 L 184 184 L 4 184 Z" fill="#2d5f3f"/>
  </g>
</svg>
