<svg xmlns="http://www.w3.org/2000/svg" viewBox="0 0 680 680" role="img" aria-label="gradland.au">
  <title>gradland.au</title>
  <rect width="680" height="680" fill="#f5efe1"/>
  <circle cx="450" cy="180" r="20" fill="#d4a04c"/>
  <path d="M 60 240 C 180 235, 320 248, 460 240 C 540 235, 590 245, 620 240" stroke="#2d5f3f" stroke-width="2" fill="none" stroke-dasharray="6 5" stroke-linecap="round"/>
  <path d="M 60 290 C 180 280, 290 295, 410 280 C 490 270, 560 290, 620 285 L 620 460 L 60 460 Z" fill="#e0a982"/>
  <path d="M 60 345 C 130 320, 240 348, 340 332 C 430 320, 510 350, 620 340 L 620 460 L 60 460 Z" fill="#d4a04c"/>
  <path d="M 60 400 C 130 385, 220 388, 320 408 C 410 420, 510 392, 620 408 L 620 460 L 60 460 Z" fill="#2d5f3f"/>
  <text x="340" y="570" text-anchor="middle" font-family="Inter, system-ui, -apple-system, 'Segoe UI', sans-serif" font-weight="700" font-size="58" fill="#1a1410">gradland.au</text>
</svg>
